<svg width="512" height="512" viewBox="0 0 512 512" fill="none" xmlns="http://www.w3.org/2000/svg">
<rect width="512" height="512" fill="#111111"/>
<rect width="512" height="512" fill="#222222"/>
<circle cx="256" cy="256" r="254" fill="#222222"/>
<path d="M301.589 114.603C316.807 120.142 331.013 127.867 344.206 137.779L348.408 140.867L329.316 164.056L325.416 161.208C312.966 152.346 301.044 145.842 289.65 141.695C278.408 137.603 268.105 135.932 258.739 136.68C249.45 137.456 243.762 140.711 241.674 146.447C240.31 150.194 240.873 154.122 243.36 158.232C245.925 162.37 249.675 166.463 254.61 170.511C259.573 174.482 265.11 178.662 271.22 183.051C277.406 187.468 283.482 192.191 289.446 197.22C295.41 202.248 300.623 207.437 305.085 212.785C309.547 218.133 312.535 224.2 314.049 230.986C315.667 237.724 315.181 244.649 312.593 251.761C310.923 256.349 308.464 260.607 305.216 264.534C302.072 268.413 297.833 271.85 292.5 274.845C287.242 277.868 281.262 280.021 274.559 281.306C267.961 282.541 260.042 282.647 250.802 281.622C241.666 280.549 231.86 278.105 221.383 274.292C210.906 270.479 201.81 266.085 194.094 261.112C186.406 256.062 178.526 249.99 170.456 242.896L166.797 239.745L186.651 215.534L190.498 218.883C207.34 232.808 222.032 242.052 234.574 246.617C246.351 250.903 256.525 252.571 265.099 251.621C273.748 250.699 279.144 247.294 281.288 241.406C282.484 238.117 282.447 234.77 281.176 231.362C279.905 227.955 277.715 224.69 274.608 221.567C271.529 218.368 267.821 215.113 263.483 211.802C259.222 208.519 254.68 205.177 249.855 201.776C245.031 198.375 240.249 194.859 235.508 191.228C230.767 187.597 226.381 183.706 222.35 179.554C218.395 175.43 215.087 171.194 212.425 166.848C209.763 162.502 208.131 157.707 207.527 152.465C206.952 147.146 207.666 141.733 209.67 136.227C214.68 122.462 225.613 113.364 242.468 108.933C259.399 104.53 279.106 106.42 301.589 114.603Z" fill="#C0C0C0"/>
<path d="M108.018 334.99C111.257 334.99 114.455 335.47 117.612 336.431L118.613 336.724L116.611 342.388L115.684 342.119C112.738 341.305 110.052 340.898 107.627 340.898C105.235 340.898 103.184 341.289 101.475 342.07C99.7821 342.852 98.9357 343.853 98.9357 345.073C98.9357 345.871 99.3101 346.571 100.059 347.173C100.824 347.775 101.808 348.288 103.013 348.711C104.217 349.118 105.544 349.525 106.992 349.932C108.457 350.339 109.922 350.811 111.387 351.348C112.852 351.885 114.186 352.503 115.391 353.203C116.595 353.903 117.572 354.839 118.32 356.011C119.085 357.166 119.468 358.501 119.468 360.015C119.468 360.991 119.297 361.96 118.955 362.92C118.63 363.864 118.068 364.8 117.271 365.728C116.489 366.655 115.513 367.469 114.341 368.169C113.185 368.853 111.704 369.414 109.898 369.854C108.107 370.277 106.097 370.488 103.867 370.488C101.638 370.488 99.6274 370.285 97.8371 369.878C96.0467 369.455 94.1506 368.853 92.1486 368.071L91.2453 367.729L93.3205 361.821L94.2726 362.188C98.3905 363.652 101.784 364.385 104.453 364.385C106.96 364.385 108.986 364.002 110.532 363.237C112.095 362.472 112.876 361.463 112.876 360.21C112.876 359.51 112.64 358.883 112.168 358.33C111.696 357.777 111.061 357.313 110.264 356.938C109.466 356.548 108.547 356.19 107.505 355.864C106.48 355.539 105.397 355.221 104.258 354.912C103.119 354.603 101.979 354.269 100.84 353.911C99.7007 353.553 98.6102 353.122 97.5685 352.617C96.5431 352.113 95.6317 351.543 94.8342 350.908C94.0366 350.273 93.4019 349.484 92.9299 348.54C92.4579 347.58 92.2218 346.514 92.2218 345.342C92.2218 342.412 93.6541 339.954 96.5187 337.969C99.3996 335.983 103.233 334.99 108.018 334.99ZM144.834 370.488C135.622 370.488 130.625 367.266 129.844 360.82C129.763 360.12 129.722 359.233 129.722 358.159V357.842V335.308H135.874V357.305C135.874 358.525 135.988 359.551 136.216 360.381C136.46 361.195 136.94 361.943 137.656 362.627C139.235 364.141 141.628 364.897 144.834 364.897C147.129 364.897 149.033 364.491 150.547 363.677C152.061 362.863 153.029 361.715 153.452 360.234C153.664 359.518 153.77 358.542 153.77 357.305V335.308H159.873C159.873 340.386 159.873 344.544 159.873 347.783C159.889 351.006 159.898 353.073 159.898 353.984C159.898 354.88 159.898 355.604 159.898 356.157C159.914 356.711 159.922 357.166 159.922 357.524C159.922 358.289 159.898 358.981 159.849 359.6C159.816 360.202 159.686 360.975 159.458 361.919C159.247 362.863 158.945 363.701 158.555 364.434C158.181 365.15 157.611 365.907 156.846 366.704C156.097 367.502 155.202 368.161 154.16 368.682C153.135 369.202 151.825 369.634 150.23 369.976C148.635 370.317 146.836 370.488 144.834 370.488ZM199.033 345.244C199.033 346.351 198.895 347.409 198.618 348.418C198.358 349.411 197.935 350.371 197.349 351.299C196.779 352.227 195.99 353.057 194.981 353.789C193.988 354.521 192.808 355.091 191.441 355.498L201.914 370H193.906L184.19 356.548H178.306V370H172.153V335.308H186.924C187.656 335.308 188.324 335.332 188.926 335.381C189.544 335.413 190.285 335.511 191.148 335.674C192.027 335.82 192.8 336.024 193.467 336.284C194.151 336.545 194.85 336.927 195.567 337.432C196.299 337.936 196.901 338.53 197.373 339.214C197.861 339.881 198.26 340.736 198.57 341.777C198.879 342.803 199.033 343.958 199.033 345.244ZM178.306 340.947V350.884H183.97C184.946 350.884 185.809 350.851 186.558 350.786C187.306 350.721 188.08 350.591 188.877 350.396C189.675 350.184 190.326 349.899 190.83 349.541C191.351 349.183 191.774 348.687 192.1 348.052C192.442 347.417 192.612 346.668 192.612 345.806C192.612 342.567 190.114 340.947 185.117 340.947H178.306ZM207.603 335.308H214.658L224.863 363.384L235.044 335.308H241.734L228.306 370H221.006L207.603 335.308ZM250.23 335.308H256.382V370H250.23V335.308ZM265.659 335.308H272.715L282.92 363.384L293.101 335.308H299.79L286.362 370H279.063L265.659 335.308ZM303.867 363.872H310.996V371.001H303.867V363.872ZM327.647 340.972V349.297H344.102V354.961H327.647V370H321.47V335.308H345.567V340.972H327.647ZM371.055 370.488C361.843 370.488 356.846 367.266 356.065 360.82C355.983 360.12 355.943 359.233 355.943 358.159V357.842V335.308H362.095V357.305C362.095 358.525 362.209 359.551 362.437 360.381C362.681 361.195 363.161 361.943 363.877 362.627C365.456 364.141 367.848 364.897 371.055 364.897C373.35 364.897 375.254 364.491 376.768 363.677C378.281 362.863 379.25 361.715 379.673 360.234C379.885 359.518 379.99 358.542 379.99 357.305V335.308H386.094C386.094 340.386 386.094 344.544 386.094 347.783C386.11 351.006 386.118 353.073 386.118 353.984C386.118 354.88 386.118 355.604 386.118 356.157C386.135 356.711 386.143 357.166 386.143 357.524C386.143 358.289 386.118 358.981 386.07 359.6C386.037 360.202 385.907 360.975 385.679 361.919C385.467 362.863 385.166 363.701 384.776 364.434C384.401 365.15 383.832 365.907 383.067 366.704C382.318 367.502 381.423 368.161 380.381 368.682C379.356 369.202 378.045 369.634 376.45 369.976C374.855 370.317 373.057 370.488 371.055 370.488ZM398.374 335.308H405.161L424.522 361.968V335.308H430.674V370H423.814L404.527 343.291V370H398.374V335.308Z" fill="#C0C0C0"/>
</svg>
